<svg xmlns="http://www.w3.org/2000/svg" version="1.1" xmlns:xlink="http://www.w3.org/1999/xlink" xmlns:svgjs="http://svgjs.dev/svgjs" width="1500" height="1500" viewBox="0 0 1500 1500"><rect width="1500" height="1500" fill="#ffffff"></rect><g transform="matrix(0.6666666666666666,0,0,0.6666666666666666,249.39393939393938,625.5988416378717)"><svg viewBox="0 0 396 99" data-background-color="#ffffff" preserveAspectRatio="xMidYMid meet" height="375" width="1500" xmlns="http://www.w3.org/2000/svg" xmlns:xlink="http://www.w3.org/1999/xlink"><g id="tight-bounds" transform="matrix(1,0,0,1,0.2400000000000091,-0.23714128859720063)"><svg viewBox="0 0 395.52 99.47428257719442" height="99.47428257719442" width="395.52"><g><svg viewBox="0 0 559.770383045056 140.7836702603364" height="99.47428257719442" width="395.52"><g transform="matrix(1,0,0,1,164.2503830450559,19.457077438295414)"><svg viewBox="0 0 395.52 101.86951538374558" height="101.86951538374558" width="395.52"><g id="textblocktransform"><svg viewBox="0 0 395.52 101.86951538374558" height="101.86951538374558" width="395.52" id="textblock"><g><rect width="395.52" height="92.38405568904594" fill="none" stroke-width="9.018103199999999" stroke="#ff5858" data-fill-palette-color="none" data-stroke-palette-color="tertiary"></rect><rect width="395.52" height="9.485459694699648" y="92.38405568904594" fill="#ff5858" data-fill-palette-color="tertiary"></rect></g><g><svg viewBox="0 0 395.52 92.38405568904594" height="92.38405568904594" width="395.52"><g transform="matrix(1,0,0,1,23.607599999999998,23.607599999999998)"><svg width="348.3048" viewBox="1.7 -35.55 282.98 36.699999999999996" height="45.16885568904594" data-palette-color="#ff5858"><path d="M7.5-31.4Q6.5-31.4 6.03-31.28 5.55-31.15 5.2-30.8L5.2-30.8Q4.9-30.5 4.67-29.98 4.45-29.45 4.45-29L4.45-29 1.7-29.05Q1.8-31.4 3.2-32.8L3.2-32.8Q3.95-33.5 4.98-33.83 6-34.15 7.55-34.2L7.55-34.2 29.4-34.2 29.4-31.4 10.5-31.4 10.5-19.5 23.4-19.5 23.4-16.7 10.5-16.7 10.5-2.8 29.4-2.8 29.4 0 7.5 0 7.5-31.4ZM65.45 1.15Q60.65 1.15 56.77-1.28 52.9-3.7 50.7-7.83 48.5-11.95 48.5-16.8L48.5-16.8Q48.5-21.8 50.8-26.13 53.1-30.45 57.05-33 61-35.55 65.75-35.55L65.75-35.55Q68.7-35.55 71.42-34.68 74.15-33.8 75.87-32.1 77.6-30.4 77.6-28L77.6-28Q77.6-26.05 76.22-24.68 74.85-23.3 72.95-23.3L72.95-23.3Q71.45-23.3 70.1-24.3L70.1-24.3 71.85-26.5Q72.5-26.1 73-26.1L73-26.1Q73.65-26.1 74.1-26.65 74.55-27.2 74.55-28.05L74.55-28.05Q74.55-29.5 73.17-30.55 71.8-31.6 69.75-32.15 67.7-32.7 65.8-32.7L65.8-32.7Q61.75-32.7 58.47-30.53 55.2-28.35 53.35-24.7 51.5-21.05 51.5-16.8L51.5-16.8Q51.5-12.7 53.27-9.22 55.05-5.75 58.22-3.73 61.4-1.7 65.5-1.7L65.5-1.7Q69.1-1.7 72.22-3.33 75.35-4.95 77.3-7.8L77.3-7.8 79.59-6.2Q77.15-2.6 73.4-0.73 69.65 1.15 65.45 1.15L65.45 1.15ZM95.44 0.5Q91.89 0.5 89.12-1.15 86.34-2.8 84.79-5.75 83.24-8.7 83.24-12.45L83.24-12.45Q83.24-16.2 84.82-19.18 86.39-22.15 89.17-23.83 91.94-25.5 95.49-25.5L95.49-25.5Q98.99-25.5 101.77-23.83 104.54-22.15 106.12-19.2 107.69-16.25 107.69-12.5L107.69-12.5Q107.69-8.75 106.12-5.8 104.54-2.85 101.77-1.18 98.99 0.5 95.44 0.5L95.44 0.5ZM95.49-2.2Q99.64-2.2 102.17-5.05 104.69-7.9 104.69-12.5L104.69-12.5Q104.69-15.55 103.54-17.88 102.39-20.2 100.29-21.5 98.19-22.8 95.49-22.8L95.49-22.8Q92.74-22.8 90.64-21.5 88.54-20.2 87.39-17.82 86.24-15.45 86.24-12.45L86.24-12.45Q86.24-9.45 87.39-7.13 88.54-4.8 90.64-3.5 92.74-2.2 95.49-2.2L95.49-2.2ZM149.64-3.4L151.84-1.75Q151.44-0.9 150.44-0.33 149.44 0.25 148.19 0.25L148.19 0.25Q146.19 0.25 144.89-1 143.59-2.25 143.59-4.25L143.59-4.25 143.59-17.5Q143.44-20.2 142.24-21.48 141.04-22.75 138.74-22.75L138.74-22.75Q134.24-22.75 131.64-17.8L131.64-17.8 131.64 0 128.64 0 128.64-16.8Q128.64-19.6 127.44-21.18 126.24-22.75 123.84-22.75L123.84-22.75Q121.54-22.75 119.57-21.35 117.59-19.95 116.74-17.9L116.74-17.9 116.74 0 113.74 0 113.74-17.5Q113.74-21.45 111.64-23.3L111.64-23.3 113.64-25.3Q114.49-24.7 115.29-23.65 116.09-22.6 116.49-21.3L116.49-21.3Q117.84-23.3 119.77-24.38 121.69-25.45 124.09-25.45L124.09-25.45Q126.54-25.45 128.31-24.3 130.09-23.15 130.99-20.9L130.99-20.9Q132.39-23.1 134.37-24.28 136.34-25.45 138.79-25.45L138.79-25.45Q142.34-25.45 144.47-23.28 146.59-21.1 146.59-17.55L146.59-17.55 146.59-4.2Q146.59-3.5 147.06-3.03 147.54-2.55 148.19-2.55L148.19-2.55Q149.19-2.55 149.64-3.4L149.64-3.4ZM192.14-3.4L194.34-1.75Q193.94-0.9 192.94-0.33 191.94 0.25 190.69 0.25L190.69 0.25Q188.69 0.25 187.39-1 186.09-2.25 186.09-4.25L186.09-4.25 186.09-17.5Q185.94-20.2 184.74-21.48 183.54-22.75 181.24-22.75L181.24-22.75Q176.74-22.75 174.14-17.8L174.14-17.8 174.14 0 171.14 0 171.14-16.8Q171.14-19.6 169.94-21.18 168.74-22.75 166.34-22.75L166.34-22.75Q164.04-22.75 162.06-21.35 160.09-19.95 159.24-17.9L159.24-17.9 159.24 0 156.24 0 156.24-17.5Q156.24-21.45 154.14-23.3L154.14-23.3 156.14-25.3Q156.99-24.7 157.79-23.65 158.59-22.6 158.99-21.3L158.99-21.3Q160.34-23.3 162.26-24.38 164.19-25.45 166.59-25.45L166.59-25.45Q169.04-25.45 170.81-24.3 172.59-23.15 173.49-20.9L173.49-20.9Q174.89-23.1 176.86-24.28 178.84-25.45 181.29-25.45L181.29-25.45Q184.84-25.45 186.96-23.28 189.09-21.1 189.09-17.55L189.09-17.55 189.09-4.2Q189.09-3.5 189.56-3.03 190.04-2.55 190.69-2.55L190.69-2.55Q191.69-2.55 192.14-3.4L192.14-3.4ZM207.74 0.5Q203.99 0.5 201.39-1.05 198.79-2.6 197.46-5.33 196.14-8.05 196.14-11.5L196.14-11.5Q196.14-14.9 197.41-18.1 198.69-21.3 201.26-23.35 203.84-25.4 207.54-25.4L207.54-25.4Q209.99-25.4 212.09-24.45 214.19-23.5 215.41-21.75 216.64-20 216.64-17.7L216.64-17.7Q216.64-14 213.49-11.98 210.34-9.95 204.79-10L204.79-10 199.29-10.05Q199.74-6.2 201.86-4.2 203.99-2.2 207.74-2.2L207.74-2.2Q209.99-2.2 211.91-2.83 213.84-3.45 215.64-4.75L215.64-4.75 217.14-2.75Q215.24-1.25 212.81-0.38 210.39 0.5 207.74 0.5L207.74 0.5ZM205.44-12.6Q213.64-12.6 213.64-17.75L213.64-17.75Q213.64-20.25 211.91-21.48 210.19-22.7 207.69-22.7L207.69-22.7Q204.89-22.7 202.96-21.1 201.04-19.5 200.09-17.15 199.14-14.8 199.14-12.6L199.14-12.6 205.44-12.6ZM233.08-25.5Q234.58-25.5 236.08-25.05L236.08-25.05 236.08-22.25Q234.63-22.6 233.18-22.6L233.18-22.6Q230.63-22.6 229.03-21.35L229.03-21.35Q227.43-20.1 226.18-17.8L226.18-17.8 226.18 0 223.18 0 223.18-17.5Q223.18-21.45 221.08-23.3L221.08-23.3 223.08-25.3Q223.98-24.75 224.78-23.65 225.58-22.55 225.93-21.2L225.93-21.2Q227.33-23.5 228.73-24.35L228.73-24.35Q230.48-25.5 233.08-25.5L233.08-25.5ZM250.38 0.3Q244.68 0.3 241.58-2.88 238.48-6.05 238.48-11.9L238.48-11.9Q238.48-15.95 239.93-19.05 241.38-22.15 243.98-23.88 246.58-25.6 249.98-25.6L249.98-25.6Q252.53-25.6 254.58-24.6 256.63-23.6 257.81-21.88 258.98-20.15 258.98-18L258.98-18 256.18-18Q256.18-20.15 254.48-21.53 252.78-22.9 250.08-22.9L250.08-22.9Q246.13-22.9 243.81-19.9 241.48-16.9 241.48-11.85L241.48-11.85Q241.48-7.25 243.78-4.83 246.08-2.4 250.38-2.4L250.38-2.4Q252.23-2.4 254.08-2.93 255.93-3.45 258.28-4.7L258.28-4.7 259.58-2.6Q255.33 0.3 250.38 0.3L250.38 0.3ZM275.28 0.5Q271.53 0.5 268.93-1.05 266.33-2.6 265-5.33 263.68-8.05 263.68-11.5L263.68-11.5Q263.68-14.9 264.95-18.1 266.23-21.3 268.8-23.35 271.38-25.4 275.08-25.4L275.08-25.4Q277.53-25.4 279.63-24.45 281.73-23.5 282.95-21.75 284.18-20 284.18-17.7L284.18-17.7Q284.18-14 281.03-11.98 277.88-9.95 272.33-10L272.33-10 266.83-10.05Q267.28-6.2 269.4-4.2 271.53-2.2 275.28-2.2L275.28-2.2Q277.53-2.2 279.45-2.83 281.38-3.45 283.18-4.75L283.18-4.75 284.68-2.75Q282.78-1.25 280.35-0.38 277.93 0.5 275.28 0.5L275.28 0.5ZM272.98-12.6Q281.18-12.6 281.18-17.75L281.18-17.75Q281.18-20.25 279.45-21.48 277.73-22.7 275.23-22.7L275.23-22.7Q272.43-22.7 270.5-21.1 268.58-19.5 267.63-17.15 266.68-14.8 266.68-12.6L266.68-12.6 272.98-12.6Z" opacity="1" transform="matrix(1,0,0,1,0,0)" fill="#ff5858" class="wordmark-text-0" data-fill-palette-color="primary" id="text-0"></path></svg></g></svg></g></svg></g></svg></g><g><svg viewBox="0 0 152.44658304505592 140.7836702603364" height="140.7836702603364" width="152.44658304505592"><g><svg xmlns="http://www.w3.org/2000/svg" xmlns:xlink="http://www.w3.org/1999/xlink" version="1.1" x="0" y="0" viewBox="4.999999407054835 8.442 90.00047893594066 83.11500000000001" enable-background="new 0 0 100 100" xml:space="preserve" height="140.7836702603364" width="152.44658304505592" class="icon-icon-0" data-fill-palette-color="accent" id="icon-0"><circle cx="47.365" cy="85.229" r="6.3" fill="#ed2647" data-fill-palette-color="accent"></circle><circle cx="75.162" cy="85.229" r="6.3" fill="#ed2647" data-fill-palette-color="accent"></circle><path d="M94.169 25.917c-0.795-1.052-2.048-1.655-3.435-1.655H29.182l-3.257-11.487c-0.699-2.463-3.156-4.321-5.715-4.322L7.829 8.442c0 0-0.001 0-0.002 0-1.56 0-2.825 1.265-2.827 2.824-0.001 1.561 1.263 2.828 2.824 2.829l12.347 0.007c0.099 0.019 0.282 0.157 0.315 0.215L36.96 72.439c0.487 1.715 2.134 2.959 3.917 2.959H81.68c1.561 0 2.825-1.265 2.825-2.825 0-1.562-1.265-2.826-2.825-2.826l-39.608-0.001-1.126-3.975h40.572c1.787 0 3.435-1.246 3.92-2.963l9.387-33.138C95.203 28.337 94.964 26.969 94.169 25.917zM30.784 29.914h15.548l1.16 12.276H34.263L30.784 29.914zM39.345 60.119l-3.1-10.938c-0.001-0.004-0.003-0.007-0.004-0.011l-0.376-1.326h12.161l1.16 12.275H39.345zM64.807 60.119h-9.943l-1.158-12.275h12.259L64.807 60.119zM66.497 42.19H53.17l-1.16-12.276h15.646L66.497 42.19zM80.324 60.119h-9.842l1.158-12.275h12.16L80.324 60.119zM85.402 42.19H72.174l1.158-12.276H88.88L85.402 42.19z" fill="#ed2647" data-fill-palette-color="accent"></path></svg></g></svg></g></svg></g><defs></defs></svg><rect width="395.52" height="99.47428257719442" fill="none" stroke="none" visibility="hidden"></rect></g></svg></g></svg>